<?xml version="1.0" encoding="utf-8"?>
<svg viewBox="12.903 0 520.161 160.483" xmlns="http://www.w3.org/2000/svg">
  <g transform="matrix(0.252498, 0, 0, -0.252498, 38.094963, 332.140472)" fill="#000000" stroke="none" style="">
    <path d="M397 1259 c-9 -5 -26 -28 -37 -50 -20 -37 -23 -39 -69 -39 -56 0 -101 -28 -101 -63 0 -12 11 -41 25 -65 13 -23 21 -50 18 -58 -5 -12 -1 -15 13 -11 29 9 71 -32 82 -80 9 -40 9 -41 -18 -46 -40 -9 -84 6 -95 31 -11 25 -25 29 -25 8 0 -28 50 -56 101 -56 47 0 49 -2 69 -40 35 -69 93 -81 133 -27 13 17 27 40 30 50 4 9 13 17 22 17 8 0 15 5 15 10 0 6 -5 10 -10 10 -19 0 1 74 28 103 35 37 50 34 72 -15 17 -39 18 -45 4 -66 -19 -29 -8 -44 13 -17 18 25 11 75 -17 114 l-20 30 25 37 c28 41 32 81 11 109 -10 15 -31 21 -82 25 -38 4 -71 3 -74 -1 -3 -5 -21 -14 -39 -22 -29 -12 -39 -12 -72 1 -22 8 -39 19 -39 25 0 26 44 78 73 86 29 8 29 9 7 10 -14 0 -33 -4 -43 -10z m-88 -106 c21 -5 22 -10 17 -47 -7 -39 -44 -85 -71 -86 -16 0 -45 54 -45 83 0 32 16 45 70 56 3 0 16 -2 29 -6z m339 -15 c18 -16 15 -57 -9 -95 l-21 -34 -32 28 c-17 15 -32 28 -32 28 -1 0 -5 19 -9 42 -5 35 -4 42 12 46 23 6 74 -2 91 -15z m-250 -7 c10 -6 4 -14 -22 -29 -27 -16 -36 -18 -36 -7 0 40 26 57 58 36z m130 -18 c4 -27 0 -28 -40 -7 -24 12 -28 18 -17 25 24 15 54 6 57 -18z m10 -109 l3 -59 -44 -27 c-54 -34 -67 -35 -117 -3 -42 27 -53 51 -48 106 2 28 12 40 52 67 l49 32 51 -28 51 -29 3 -59z m-220 -25 l-3 -21 -25 21 -25 21 25 21 25 21 3 -21 c2 -11 2 -31 0 -42z m267 41 c17 -19 17 -21 0 -40 -27 -29 -35 -25 -35 20 0 45 8 49 35 20z m-187 -151 c-32 -21 -58 -4 -58 36 0 11 9 9 36 -7 26 -15 32 -23 22 -29z m132 21 c0 -25 -24 -36 -53 -23 -21 10 -21 10 8 26 39 21 45 21 45 -3z m-21 -56 c3 -3 -3 -21 -14 -40 -35 -65 -78 -68 -115 -10 -27 45 -26 51 18 68 32 13 42 13 71 1 19 -7 37 -16 40 -19z"/>
    <path d="M412 1034 c-12 -8 -22 -24 -22 -34 0 -10 10 -26 22 -34 19 -13 25 -14 43 -2 11 7 20 24 20 36 0 12 -9 29 -20 36 -18 12 -24 11 -43 -2z m46 -31 c5 -17 -26 -29 -40 -15 -6 6 -7 15 -3 22 9 14 37 9 43 -7z"/>
    <path d="M467 1253 c-15 -15 -6 -52 14 -58 28 -9 53 16 44 44 -6 20 -43 29 -58 14z m41 -25 c-6 -18 -28 -21 -28 -4 0 9 7 16 16 16 9 0 14 -5 12 -12z"/>
    <path d="M952 1129 c2 -64 7 -84 20 -93 23 -14 35 0 20 24 -7 11 -12 49 -12 85 0 52 -3 65 -15 65 -13 0 -15 -14 -13 -81z"/>
    <path d="M1022 1193 c2 -10 10 -18 18 -18 8 0 16 8 18 18 2 12 -3 17 -18 17 -15 0 -20 -5 -18 -17z"/>
    <path d="M1210 1120 c0 -73 3 -90 15 -90 9 0 15 9 15 25 0 14 4 25 9 25 5 0 16 -11 25 -25 16 -24 46 -35 46 -16 0 4 -10 21 -21 35 l-22 28 22 29 c20 26 20 29 4 29 -10 0 -24 -9 -31 -20 -20 -32 -32 -23 -32 25 0 33 -4 45 -15 45 -12 0 -15 -17 -15 -90z"/>
    <path d="M832 1190 c-46 -19 -56 -97 -17 -136 20 -20 34 -25 63 -22 24 2 38 8 40 19 2 12 -4 15 -28 11 -39 -6 -60 12 -60 53 0 39 21 59 55 53 29 -6 45 10 24 23 -18 11 -47 10 -77 -1z"/>
    <path d="M1024 1147 c-3 -8 -4 -36 -2 -63 2 -36 7 -49 18 -49 20 0 22 116 3 122 -7 3 -16 -2 -19 -10z"/>
    <path d="M1113 1145 c-48 -34 -19 -115 40 -115 36 0 36 28 0 32 -24 3 -28 8 -28 33 0 25 4 30 28 33 16 2 27 8 24 15 -6 18 -40 19 -64 2z"/>
    <path d="M830 957 c-34 -17 -50 -79 -29 -115 17 -32 56 -47 93 -38 38 9 35 37 -4 30 -39 -8 -60 10 -60 51 0 39 21 59 55 53 29 -6 45 10 24 23 -20 12 -50 11 -79 -4z"/>
    <path d="M197 953 c-14 -13 -7 -33 11 -33 24 0 32 8 25 26 -5 15 -25 19 -36 7z"/>
    <path d="M1370 892 c0 -73 10 -92 46 -92 33 0 39 19 10 30 -20 7 -26 17 -26 40 0 23 4 30 20 30 11 0 20 7 20 15 0 8 -9 15 -20 15 -11 0 -20 7 -20 15 0 8 -7 15 -15 15 -12 0 -15 -14 -15 -68z"/>
    <path d="M960 910 c-11 -11 -20 -31 -20 -45 0 -30 32 -65 60 -65 28 0 60 35 60 65 0 30 -32 65 -60 65 -11 0 -29 -9 -40 -20z m65 -29 c8 -26 -4 -51 -25 -51 -10 0 -21 7 -24 16 -10 25 3 54 24 54 10 0 21 -8 25 -19z"/>
    <path d="M1090 881 c0 -60 19 -83 64 -79 31 3 31 4 34 66 2 51 0 62 -13 62 -11 0 -15 -12 -15 -51 0 -43 -3 -50 -17 -47 -14 2 -19 15 -21 51 -2 33 -7 47 -18 47 -10 0 -14 -13 -14 -49z"/>
    <path d="M1237 923 c-4 -3 -7 -33 -7 -65 0 -45 3 -58 15 -58 11 0 15 12 15 50 0 43 3 50 20 50 17 0 20 -7 20 -50 0 -38 4 -50 15 -50 19 0 21 100 3 118 -13 13 -70 17 -81 5z"/>
    <path d="M1485 916 c-26 -19 -26 -83 1 -103 22 -16 76 -14 82 5 2 8 -7 12 -27 12 -44 0 -48 18 -4 22 45 4 54 27 24 57 -24 24 -49 27 -76 7z m55 -26 c0 -5 -9 -10 -20 -10 -11 0 -20 5 -20 10 0 6 9 10 20 10 11 0 20 -4 20 -10z"/>
    <path d="M1623 923 c-20 -7 -18 -123 2 -123 11 0 15 12 15 50 0 43 3 50 20 50 11 0 20 7 20 15 0 15 -31 19 -57 8z"/>
    <path d="M585 857 c-23 -17 -14 -47 15 -47 26 0 37 27 18 46 -12 12 -17 12 -33 1z m25 -17 c0 -5 -4 -10 -10 -10 -5 0 -10 5 -10 10 0 6 5 10 10 10 6 0 10 -4 10 -10z"/>
  </g>
</svg>